<svg width="200" height="200" viewBox="0 0 200 200" fill="none" xmlns="http://www.w3.org/2000/svg">
<rect width="200" height="200" rx="24" fill="#1E88E5"/>
<path d="M95.8545 142.408C93.2092 142.408 90.9478 141.299 89.0705 139.08C87.2785 136.776 85.5292 133.021 83.8225 127.816C82.9692 125.256 82.2438 122.781 81.6465 120.392C81.1345 117.917 80.7505 115.528 80.4945 113.224C79.3852 114.931 78.3612 116.083 77.4225 116.68C76.5692 117.192 75.2892 117.448 73.5825 117.448C69.4012 117.448 64.9638 117.405 60.2705 117.32C55.5772 117.149 51.3958 117.021 47.7265 116.936C47.5558 118.472 47.3852 120.051 47.2145 121.672C47.1292 123.208 47.0865 124.744 47.0865 126.28C47.0865 127.645 47.1292 129.011 47.2145 130.376C47.3852 131.741 47.5132 133.064 47.5985 134.344C47.8545 136.733 46.9158 138.653 44.7825 140.104C42.6492 141.555 40.0038 142.28 36.8465 142.28C34.1158 142.28 32.7505 141.085 32.7505 138.696C32.7505 137.245 33.1345 135.069 33.9025 132.168C34.3292 130.205 34.6705 128.541 34.9265 127.176C35.1825 125.725 35.3105 124.573 35.3105 123.72C35.3105 121.331 34.5852 119.709 33.1345 118.856C31.9398 118.173 31.3425 117.277 31.3425 116.168C31.3425 115.144 31.5558 113.907 31.9825 112.456C32.4945 111.005 33.1345 109.683 33.9025 108.488C34.6705 107.208 35.3958 106.312 36.0785 105.8C36.6758 105.459 37.4012 105.16 38.2545 104.904C39.1078 104.648 40.1745 104.477 41.4545 104.392C44.7825 94.8347 48.4945 86.6 52.5905 79.688C56.7718 72.6907 61.2092 67.3147 65.9025 63.56C70.5958 59.72 75.3745 57.8 80.2385 57.8C83.2252 57.8 85.4012 58.824 86.7665 60.872C88.1318 62.8347 88.8145 66.1627 88.8145 70.856V76.616C88.8145 85.2347 89.4545 93.1707 90.7345 100.424C92.0145 107.677 93.5932 113.565 95.4705 118.088C97.3478 122.867 99.9505 126.792 103.279 129.864C104.303 130.717 104.985 131.485 105.326 132.168C105.668 132.765 105.839 133.405 105.839 134.088C105.839 135.368 105.327 136.648 104.303 137.928C103.364 139.208 102.127 140.275 100.59 141.128C99.0545 141.981 97.4758 142.408 95.8545 142.408ZM51.5665 103.624C55.7478 103.453 59.4172 103.325 62.5745 103.24C65.7318 103.069 68.3772 102.984 70.5105 102.984H79.4705C79.2998 100.595 79.1292 98.0773 78.9585 95.432C78.8732 92.7867 78.8305 90.0133 78.8305 87.112V79.688C78.8305 77.2133 78.5318 75.592 77.9345 74.824C77.4225 73.9707 76.3985 73.544 74.8625 73.544C70.6812 73.544 66.4998 76.2747 62.3185 81.736C58.1372 87.1973 54.5532 94.4933 51.5665 103.624ZM131.776 142.664C127.594 142.664 123.712 142.067 120.128 140.872C116.629 139.592 113.813 137.843 111.68 135.624C109.546 133.405 108.48 130.803 108.48 127.816C108.48 125.853 108.949 124.147 109.888 122.696C110.826 121.16 112.106 120.392 113.728 120.392C114.752 120.392 115.818 120.776 116.928 121.544C119.061 123.421 121.792 125.085 125.12 126.536C128.533 127.901 132.16 128.584 136 128.584C141.034 128.584 145.13 127.603 148.288 125.64C151.53 123.592 153.152 120.861 153.152 117.448C153.152 114.205 151.658 111.859 148.672 110.408C145.685 108.957 141.546 107.592 136.256 106.312C132.33 105.373 128.533 104.179 124.864 102.728C121.28 101.277 118.293 99.272 115.904 96.712C113.6 94.0667 112.448 90.568 112.448 86.216C112.448 82.888 113.173 79.6027 114.624 76.36C116.074 73.032 118.208 70.0027 121.024 67.272C123.84 64.5413 127.253 62.3653 131.264 60.744C135.274 59.0373 139.797 58.184 144.832 58.184C148.586 58.184 152 58.6107 155.072 59.464C158.229 60.3173 160.704 61.512 162.496 63.048C164.373 64.584 165.312 66.4613 165.312 68.68C165.312 70.3867 164.842 71.88 163.904 73.16C162.965 74.44 161.856 75.464 160.576 76.232C159.296 76.9147 158.186 77.256 157.248 77.256C156.394 77.256 155.242 76.872 153.792 76.104C151.402 74.824 148.714 73.8427 145.728 73.16C142.826 72.392 140.266 72.008 138.048 72.008C133.866 72.008 130.453 72.9467 127.808 74.824C125.248 76.616 123.968 78.7493 123.968 81.224C123.968 83.9547 125.589 86.2587 128.832 88.136C132.16 89.928 138.09 91.848 146.624 93.896C152.426 95.432 156.949 97.5653 160.192 100.296C163.434 102.941 165.056 107.165 165.056 112.968C165.056 118.173 163.648 123.037 160.832 127.56C158.101 132.083 154.218 135.752 149.184 138.568C144.234 141.299 138.432 142.664 131.776 142.664Z" fill="white"/>
</svg>
